# xmcd
#
# Track frame offsets:
#	150
#	13862
#	27752
#	46326
#	72003
#	85106
#	100989
#	119266
#	133575
#	150898
#
# Disc length: 2219
#
# Revision: 2
# Processed by: cddbd v1.5.1PL0 Copyright (c) Steve Scherf et al.
# Submitted via: EasyCDDAExtractor 7.0.5.4
# Normalized: r1:DSETVAR1
#
DISCID=7108a90a
DTITLE=Various Artist - Essential Texas Blues
DYEAR=1997
DGENRE=Blues
TTITLE0=Kim Wilson - Baby, Please Don't Lie To Me
TTITLE1=Albert Collins - Frosty
TTITLE2=Lou Ann Barton - Stop These Teardrops
TTITLE3=Anson Funderberg and The Rockets - Changing Neighborhoods
TTITLE4=Zuzu Bollin - Why Don't You Eat Where You Slept Last Night?
TTITLE5=Long John Hunter - Nasty Ways
TTITLE6=Robert Shaw - The Cows
TTITLE7=Lowell Fulson - Reconsider, Baby
TTITLE8=Tutu Jones - It's Been A Mistake
TTITLE9=W.C. Clark - Why Do These Things Happen To Me?
EXTD=
EXTT0=
EXTT1=
EXTT2=
EXTT3=
EXTT4=
EXTT5=
EXTT6=
EXTT7=
EXTT8=
EXTT9=
PLAYORDER=
